<?xml version="1.0" standalone="no"?>
<!DOCTYPE svg PUBLIC "-//W3C//DTD SVG 20010904//EN"
 "http://www.w3.org/TR/2001/REC-SVG-20010904/DTD/svg10.dtd">
<svg version="1.0" xmlns="http://www.w3.org/2000/svg"
 width="4288.000000pt" height="2848.000000pt" viewBox="0 0 4288.000000 2848.000000"
 preserveAspectRatio="xMidYMid meet">
<metadata>
Created by potrace 1.13, written by Peter Selinger 2001-2015
</metadata>
<g transform="translate(0.000000,2848.000000) scale(0.100000,-0.100000)"
fill="#000000" stroke="none">
<path d="M6080 18230 c0 -5 6 -7 13 -4 8 3 20 -3 28 -12 11 -14 11 -18 -5 -29
-9 -7 -40 -16 -67 -20 -27 -4 -49 -11 -49 -16 0 -5 20 -30 45 -56 44 -46 55
-60 35 -48 -15 10 -12 -18 6 -43 8 -12 13 -26 9 -32 -3 -5 8 -19 25 -31 16
-13 30 -31 30 -40 0 -10 4 -28 9 -41 5 -13 15 -43 22 -68 7 -25 16 -49 21 -54
4 -6 8 -18 8 -27 0 -20 34 -90 85 -174 36 -61 46 -74 122 -159 24 -26 43 -58
43 -70 0 -12 48 -80 113 -161 139 -173 247 -313 247 -320 0 -8 -53 6 -64 16
-6 5 -15 9 -20 9 -6 0 -4 -5 4 -11 12 -9 11 -10 -7 -6 -13 3 -23 1 -23 -5 0
-6 -7 -8 -15 -4 -8 3 -18 -2 -23 -11 -8 -13 -10 -10 -16 12 -4 15 -10 25 -13
21 -4 -3 -15 2 -26 11 -14 13 -18 13 -11 3 15 -25 12 -61 -6 -57 -9 2 -14 12
-13 27 3 24 2 25 -13 5 -8 -11 -21 -19 -29 -17 -19 4 -30 -19 -14 -29 11 -7
12 -11 1 -17 -20 -13 48 -77 82 -77 16 0 24 4 22 12 -11 27 11 20 23 -8 7 -16
17 -29 22 -29 11 0 12 33 2 44 -4 3 -8 15 -10 26 -3 20 7 26 21 13 11 -12 40
-12 47 -1 11 17 84 15 102 -4 13 -12 14 -18 4 -22 -6 -4 -2 -4 11 -2 15 3 22
-1 22 -12 0 -10 18 -28 40 -41 22 -14 38 -27 35 -29 -2 -3 -17 3 -32 13 -18
12 -28 14 -31 7 -2 -6 -14 0 -28 15 -14 15 -32 28 -42 29 -9 1 -25 5 -34 9
-28 11 -22 -14 10 -41 15 -13 32 -24 38 -24 12 0 28 -70 18 -79 -3 -3 -15 8
-28 24 -12 15 -27 25 -33 22 -5 -3 -17 3 -26 14 -9 10 -22 19 -29 19 -10 0
-10 -2 1 -9 8 -5 11 -16 6 -30 -5 -15 -2 -21 9 -21 9 0 16 -7 16 -15 0 -8 5
-15 10 -15 6 0 10 -11 10 -25 0 -13 8 -29 18 -35 14 -10 13 -11 -10 -7 -17 2
-29 -1 -32 -9 -3 -8 1 -14 11 -14 14 0 14 -2 -2 -20 -12 -13 -25 -18 -34 -14
-9 4 -26 6 -38 5 -13 0 -23 3 -23 8 0 5 -9 7 -20 4 -11 -3 -20 -1 -20 5 0 26
-94 102 -108 87 -9 -8 28 -74 53 -93 23 -18 40 -52 26 -52 -44 0 334 -525 587
-815 154 -176 425 -455 442 -455 5 0 12 9 15 20 5 15 15 20 38 20 42 0 82 -23
156 -90 49 -44 61 -60 61 -85 0 -35 -8 -49 -34 -58 -18 -7 -18 -9 4 -32 13
-14 34 -25 46 -25 18 0 24 7 30 35 7 38 15 43 34 20 14 -17 56 -20 65 -4 4 6
-7 40 -25 76 -28 56 -31 68 -20 88 10 19 8 32 -20 89 -30 64 -33 96 -10 96 18
0 11 43 -17 110 -15 36 -30 67 -34 70 -18 13 -39 86 -33 115 5 26 -4 53 -45
136 -44 88 -51 109 -46 144 4 28 0 52 -14 80 -12 24 -20 33 -20 22 -1 -10 -6
-27 -12 -38 -8 -15 -14 -18 -23 -9 -8 5 -21 7 -31 4 -13 -5 -16 -2 -14 12 3
20 -20 62 -55 102 l-19 22 24 0 c14 0 30 -5 36 -11 15 -15 57 -7 60 11 4 24
-35 64 -50 52 -14 -12 -107 -4 -107 10 0 5 -5 6 -10 3 -6 -3 -13 2 -17 12 -8
21 -11 26 -57 79 -34 39 -43 63 -30 77 15 15 160 -62 218 -116 67 -62 136
-109 152 -103 13 5 12 11 -10 37 -29 34 -34 69 -11 69 19 0 19 30 0 56 -16 22
-20 74 -5 74 20 0 9 50 -25 122 -23 48 -34 81 -30 98 3 16 -6 48 -25 88 -16
35 -30 78 -30 96 0 18 -5 37 -10 42 -8 8 -6 15 5 24 18 15 19 34 3 60 -7 10
-10 22 -6 25 3 3 49 11 103 16 53 5 117 14 142 18 48 9 74 9 248 -4 108 -7
200 -37 323 -103 52 -28 69 -33 101 -27 21 3 150 8 287 10 253 3 304 8 304 29
0 14 -120 76 -147 76 -10 0 -27 6 -38 13 -11 8 -49 20 -85 26 -36 7 -78 19
-95 25 -29 13 -130 8 -197 -9 -16 -4 -28 -3 -28 2 0 20 49 36 122 39 43 2 82
5 86 6 9 4 35 3 182 -11 199 -18 258 -21 225 -12 -16 5 -54 9 -84 10 -49 1
-53 3 -36 14 16 13 15 14 -16 10 -22 -3 -29 -1 -21 5 13 9 -8 13 -100 15 -25
1 -41 5 -35 9 7 4 -7 8 -30 9 -24 1 -47 3 -53 4 -5 1 -13 3 -17 4 -5 2 1 7 12
12 16 7 12 8 -17 6 -21 -2 -38 1 -38 5 0 4 -5 8 -11 8 -6 0 -9 -7 -5 -15 4
-12 -2 -15 -27 -14 -30 1 -30 1 -7 8 24 7 24 7 5 15 -22 10 -74 8 -90 -2 -5
-4 -37 -7 -70 -8 -33 -1 -51 1 -40 4 14 4 6 9 -30 18 -34 9 -53 10 -62 2 -16
-13 -75 -13 -100 1 -11 6 -23 7 -27 4 -3 -3 -6 -1 -6 5 0 7 -4 12 -10 12 -5 0
-10 -7 -10 -15 0 -12 -7 -14 -27 -9 l-28 7 34 -30 34 -31 -44 3 c-24 1 -64 11
-89 23 -25 12 -54 22 -65 22 -16 0 -17 2 -5 10 11 7 9 11 -13 19 -16 6 -34 11
-40 11 -7 0 -23 7 -35 16 -21 14 -22 14 -22 -5 0 -22 -33 -30 -45 -11 -3 6
-16 10 -29 10 -12 0 -27 5 -33 11 -8 8 -16 8 -30 0 -17 -10 -17 -10 2 -12 17
-1 16 -2 -5 -9 -14 -4 -41 -9 -60 -10 l-35 -2 30 -9 c17 -5 54 -11 84 -13 36
-2 58 -8 66 -19 7 -10 17 -17 24 -17 6 0 19 -4 29 -9 41 -21 70 -30 117 -37
l50 -7 -40 -13 c-22 -7 -32 -13 -22 -13 9 -1 17 -5 17 -11 0 -5 4 -10 10 -10
5 0 7 6 4 14 -4 11 2 14 28 12 52 -5 54 -6 38 -16 -12 -8 -11 -10 8 -10 12 0
22 -5 22 -11 0 -7 -10 -9 -27 -4 -37 10 -67 8 -71 -5 -5 -14 -34 -13 -73 5
l-34 14 32 1 c17 0 34 -6 36 -12 4 -8 6 -7 6 3 1 21 -17 28 -55 23 -24 -4 -26
-3 -9 5 19 9 18 10 -5 11 -14 2 -28 2 -32 1 -5 0 -8 3 -8 9 0 5 -7 10 -15 10
-18 0 -20 -16 -2 -23 9 -4 9 -6 0 -6 -6 -1 -15 4 -18 9 -8 13 -55 13 -55 0 0
-10 -72 -6 -91 6 -8 4 -9 3 -5 -4 5 -8 -2 -12 -18 -12 -14 0 -26 -4 -26 -9 0
-5 -7 -12 -16 -15 -14 -5 -15 -4 -5 8 9 11 7 14 -13 18 -17 3 -23 1 -19 -8 2
-7 -5 -17 -16 -24 -17 -9 -21 -8 -21 5 0 10 5 13 12 9 8 -5 9 -2 5 10 -4 10
-7 20 -7 22 0 2 -4 4 -10 4 -5 0 -7 -7 -4 -15 4 -8 1 -15 -6 -15 -8 0 -10 -10
-6 -34 7 -37 -13 -69 -39 -60 -21 8 -82 137 -67 142 16 5 15 47 -1 61 -8 6
-19 28 -25 50 -7 21 -19 42 -27 45 -8 3 -15 10 -15 16 0 6 4 9 9 5 5 -3 13 0
17 6 3 6 0 15 -7 20 -12 7 -12 9 0 9 8 0 3 10 -14 26 -23 22 -28 34 -27 72 1
45 -37 144 -59 158 -5 3 -7 9 -4 14 9 14 -22 68 -45 80 -11 6 -20 20 -20 30 0
11 -6 20 -14 20 -17 0 -32 33 -17 38 6 2 4 16 -6 36 -15 32 -14 35 5 54 18 18
65 32 162 48 14 2 71 5 128 6 56 1 99 5 95 9 -5 4 -48 21 -98 40 -49 18 -155
59 -235 92 -281 115 -440 169 -467 161 -14 -4 -15 -3 -5 4 10 6 2 9 -25 9 -22
0 -52 8 -67 18 -28 19 -80 32 -154 41 -24 2 -52 9 -62 14 -9 5 -20 7 -23 4 -3
-3 -15 0 -27 6 -11 6 -65 12 -118 13 -80 2 -104 6 -134 24 -35 20 -38 21 -48
5 -8 -14 -11 -15 -19 -3 -11 17 -121 27 -121 11z"/>
<path d="M7652 17700 c-51 -5 -98 -13 -105 -19 -7 -5 -23 -8 -35 -4 -13 3 -22
1 -22 -6 0 -6 -11 -11 -25 -11 -18 0 -25 -5 -25 -19 0 -10 -7 -21 -15 -25 -25
-9 -15 -96 11 -96 7 0 11 -6 9 -12 -11 -29 30 -45 158 -64 15 -2 36 -8 47 -14
10 -5 30 -10 44 -10 14 0 27 -4 30 -9 3 -5 20 -11 38 -14 47 -8 91 -18 108
-24 23 -9 70 -15 70 -9 0 3 -24 21 -52 39 -29 19 -62 44 -72 56 -17 18 -18 24
-6 45 7 14 10 32 6 41 -3 9 0 18 9 22 12 4 13 9 5 18 -6 8 -10 19 -9 27 5 29
-15 70 -42 83 -15 8 -29 14 -31 14 -2 -1 -45 -5 -96 -9z"/>
<path d="M5272 17517 c-28 -5 -55 -20 -77 -43 -19 -19 -40 -34 -47 -34 -7 0 0
-11 15 -26 15 -14 32 -22 39 -18 8 5 9 1 5 -12 -6 -17 -6 -17 6 -2 8 10 23 15
42 12 25 -4 27 -3 10 5 -19 9 -19 10 2 10 12 1 24 -5 26 -11 4 -10 8 -10 15 1
5 7 15 11 20 7 11 -7 38 32 34 47 -1 4 4 15 13 23 8 9 15 19 15 23 0 15 -76
27 -118 18z"/>
<path d="M5159 17351 c-34 -5 -53 -14 -71 -35 -23 -27 -31 -29 -109 -34 -46
-2 -102 -4 -124 -4 -38 1 -163 -42 -229 -78 -44 -24 -85 -80 -88 -120 l-3 -35
75 3 c52 2 87 9 115 24 114 59 331 78 493 44 87 -19 115 -21 92 -6 -13 8 -12
10 5 11 26 2 27 2 50 -7 19 -7 19 -7 4 9 -10 9 -35 18 -57 19 -22 2 -38 6 -36
10 6 10 -14 20 -26 13 -8 -5 -8 -11 0 -20 8 -10 8 -15 0 -20 -7 -4 -14 2 -17
14 -4 15 -13 21 -32 21 -18 0 -22 3 -13 9 8 5 -21 11 -74 15 -48 3 -90 8 -92
11 -20 20 93 71 179 81 80 8 91 15 54 30 -29 13 -29 13 -5 14 20 0 22 2 10 10
-8 5 -26 10 -40 10 -20 0 -22 2 -10 10 8 5 11 9 5 9 -5 -1 -31 -5 -56 -8z"/>
<path d="M26293 13716 c3 -8 -2 -16 -14 -19 -13 -4 -17 -10 -13 -24 10 -28 35
-43 73 -43 36 0 36 0 11 -13 -17 -8 -26 -23 -28 -42 -2 -17 -8 -35 -13 -41
-14 -17 11 -69 40 -81 29 -13 161 -63 234 -89 26 -9 47 -23 47 -31 0 -14 -6
-17 -52 -27 -25 -6 -27 -8 -16 -26 7 -11 21 -20 31 -20 34 0 11 -25 -39 -42
-44 -14 -49 -19 -52 -48 -2 -21 -10 -34 -21 -37 -10 -3 -24 -15 -31 -28 -7
-12 -22 -28 -34 -34 -33 -17 -56 -34 -86 -63 -16 -16 -35 -28 -42 -28 -8 0
-24 -9 -35 -19 -11 -11 -61 -40 -110 -65 -59 -30 -101 -59 -126 -88 -46 -55
-84 -107 -96 -135 -6 -13 -17 -23 -25 -23 -8 0 -19 -15 -25 -32 -6 -18 -25
-44 -41 -58 -28 -23 -50 -86 -53 -152 -1 -9 -4 -15 -7 -13 -4 2 -12 -19 -20
-48 -14 -60 -37 -133 -50 -162 -4 -11 -11 -28 -14 -38 -3 -9 -11 -16 -18 -15
-7 2 -14 -8 -16 -22 -2 -14 -8 -31 -14 -37 -6 -7 -7 -28 -4 -49 7 -36 7 -36
-22 -29 -33 7 -44 -8 -47 -61 -1 -18 -6 -40 -10 -50 -4 -11 -9 -23 -10 -29 -2
-14 -13 -41 -40 -100 -12 -27 -26 -71 -29 -97 -4 -27 -12 -48 -18 -48 -6 0 -8
-3 -5 -7 4 -3 2 -12 -4 -20 -10 -11 -14 -10 -24 3 -10 14 -14 12 -28 -19 -9
-19 -17 -52 -17 -74 -1 -35 -2 -36 -15 -19 -16 21 -35 13 -35 -16 0 -14 5 -18
15 -15 19 8 21 2 30 -62 5 -38 4 -52 -4 -47 -6 4 -11 0 -11 -11 0 -10 -9 -24
-21 -31 -34 -21 -49 0 -42 58 12 100 -19 101 -57 2 -12 -31 -26 -66 -31 -77
-28 -62 -101 -329 -123 -445 -35 -190 -39 -238 -31 -343 8 -110 15 -128 45
-109 53 32 130 -1 130 -56 0 -48 19 -62 108 -77 45 -8 95 -12 112 -9 23 5 30
3 30 -10 0 -13 12 -16 70 -16 l70 0 31 61 c26 52 34 60 52 56 12 -3 47 -12 77
-19 31 -8 61 -13 68 -10 15 5 52 74 52 97 0 9 -12 36 -26 61 -32 54 -18 58 53
15 30 -18 68 -31 101 -35 51 -5 53 -4 72 27 24 39 25 56 3 102 -11 24 -23 35
-38 35 -12 0 -31 11 -43 25 -26 29 -27 36 -8 29 9 -3 21 5 31 20 14 22 16 42
11 127 -4 76 -2 99 7 96 20 -6 47 -62 51 -107 2 -23 17 -69 34 -101 l29 -59
-26 -6 c-54 -12 -57 -16 -26 -30 45 -20 75 -18 75 5 0 32 35 50 78 40 20 -5
56 -9 80 -9 40 0 43 2 64 45 12 24 19 48 15 52 -4 4 -30 -1 -58 -11 -62 -23
-118 -11 -139 28 -11 21 -10 28 7 50 21 27 22 61 8 249 -4 61 -3 77 8 77 11 0
47 -56 52 -80 4 -21 39 -100 44 -100 4 0 16 -7 27 -15 18 -15 18 -16 -6 -13
-34 4 -38 -25 -5 -40 43 -20 67 -16 63 11 -2 17 3 23 20 25 16 2 22 8 18 18
-3 8 -1 14 4 14 13 0 13 154 1 178 -8 15 -41 157 -41 175 0 4 5 7 10 7 14 0
48 -57 60 -100 5 -20 18 -45 28 -55 10 -11 19 -24 19 -29 1 -9 53 -46 66 -46
4 0 7 7 7 15 0 8 5 15 11 15 7 0 9 12 5 33 -3 19 -8 55 -11 80 -4 42 -18 85
-61 197 -18 46 -17 70 1 70 8 0 14 -3 13 -7 -1 -5 4 -19 11 -32 10 -19 15 -21
22 -10 6 10 9 8 9 -9 0 -13 4 -21 8 -18 7 4 20 -20 36 -66 3 -10 15 -18 26
-18 17 0 20 -4 15 -20 -9 -27 3 -25 16 3 9 20 9 20 6 -6 -3 -21 -1 -27 12 -25
31 6 14 86 -40 185 -42 78 -38 105 7 46 45 -57 92 -101 124 -118 28 -14 30
-14 30 3 0 10 -5 23 -12 30 -7 7 -9 12 -6 12 3 0 0 20 -7 44 -13 41 -12 45 9
65 12 12 26 18 29 14 4 -3 7 4 7 17 0 21 -32 72 -67 108 -7 7 -13 18 -13 23 0
14 16 11 31 -7 8 -10 24 -14 46 -12 18 2 33 0 33 -4 0 -4 5 -8 11 -8 5 0 7 5
4 10 -3 6 1 10 9 10 33 0 25 11 -105 147 -50 53 -70 83 -55 83 9 0 83 -80 78
-85 -3 -3 3 -5 14 -5 10 0 37 -16 59 -35 43 -37 58 -44 49 -21 -4 11 5 17 32
22 l39 7 -85 79 c-64 58 -82 80 -71 87 18 12 46 3 76 -25 14 -13 25 -21 25
-19 0 3 9 -3 20 -12 13 -11 40 -18 75 -20 l55 -2 -43 37 c-23 20 -55 47 -70
58 -29 23 -35 44 -14 44 8 0 38 -17 68 -39 30 -21 65 -41 79 -45 l25 -7 -22
19 -22 20 21 5 c12 3 30 2 40 -4 33 -17 19 -4 -37 36 -85 62 -71 80 16 20 57
-39 66 -41 94 -20 18 15 18 16 -15 45 -19 16 -42 32 -52 35 -9 3 -19 12 -22
20 -6 18 20 20 58 5 21 -8 24 -7 19 8 -3 11 1 9 11 -6 10 -12 22 -19 28 -16 6
4 14 1 18 -6 5 -9 13 -9 26 -2 16 9 13 13 -29 39 -54 33 -60 48 -14 39 40 -8
65 -10 96 -8 l25 2 -27 28 c-15 15 -27 32 -27 36 0 8 57 -2 75 -12 15 -10 95
-13 95 -5 -1 5 -19 17 -42 28 -44 21 -61 45 -33 45 10 0 35 -10 56 -22 37 -21
70 -18 39 3 -11 8 -8 8 10 3 25 -7 25 -6 6 14 -10 12 -27 24 -37 27 -11 4 -19
13 -19 22 0 11 6 14 27 9 17 -5 29 -3 34 6 7 10 9 10 9 1 0 -7 7 -13 15 -13
21 0 19 13 -5 35 -26 24 -21 27 20 15 38 -11 82 -3 60 10 -8 5 -1 11 19 18 27
10 31 15 25 37 -5 19 -2 25 11 25 16 0 16 9 -2 58 -3 6 2 12 12 12 13 0 15 6
10 30 -4 19 -3 30 4 30 6 0 11 9 11 20 0 11 -4 20 -10 20 -14 0 -13 27 1 32 8
3 7 14 -5 35 -20 39 -20 43 -1 43 22 0 18 14 -12 40 -24 21 -25 24 -10 35 24
17 22 22 -20 44 l-38 20 53 1 c37 0 52 4 52 14 0 8 7 17 16 20 10 4 14 16 12
38 -3 33 -3 33 47 36 42 2 52 7 62 27 9 20 8 25 -3 25 -8 0 -14 5 -14 11 0 14
-22 35 -46 43 -28 8 -86 64 -80 75 4 5 -38 26 -91 47 -107 40 -358 141 -633
254 -319 131 -507 199 -608 220 -121 24 -166 26 -159 6z"/>
<path d="M24717 13415 c-37 -6 -80 -21 -95 -32 -33 -24 -56 -68 -45 -86 4 -6
6 -22 5 -34 -5 -33 48 -44 108 -24 33 11 77 14 170 12 l125 -3 -19 21 c-33 36
-9 46 109 46 127 -1 125 14 -5 40 -83 17 -99 20 -186 31 -36 4 -41 8 -37 24 5
17 0 20 -28 19 -19 -1 -65 -7 -102 -14z"/>
<path d="M27990 13005 c-12 -14 -7 -19 13 -16 5 1 6 -3 2 -9 -3 -5 -16 -11
-28 -11 -17 -1 -18 -2 -4 -6 10 -3 18 -15 18 -31 2 -26 2 -26 6 -3 3 13 10 30
17 37 10 10 15 9 26 -6 10 -13 22 -17 45 -13 19 3 35 0 40 -6 5 -8 -1 -10 -19
-5 -23 5 -26 3 -26 -20 0 -14 5 -26 12 -26 23 0 -3 -14 -30 -16 -15 -1 -19 0
-9 3 11 3 16 11 13 20 -3 8 -6 17 -6 19 0 3 -9 -1 -19 -8 -25 -18 -91 -11 -91
8 0 8 -4 14 -9 14 -15 0 -23 -18 -11 -25 6 -4 8 -11 5 -16 -4 -5 2 -9 12 -10
13 -1 11 -3 -7 -9 -24 -8 -24 -8 -2 -9 12 -1 22 -5 22 -11 0 -5 11 -10 25 -10
13 0 28 -7 32 -15 5 -8 23 -15 41 -17 17 -1 32 -6 32 -10 0 -4 7 -5 16 -1 9 3
19 2 23 -3 10 -15 48 -33 55 -27 15 15 5 34 -14 28 -14 -4 -20 -2 -20 9 0 13
5 14 26 6 37 -14 64 -12 64 5 0 9 9 15 23 15 17 0 19 2 7 10 -8 5 -25 7 -37 3
-14 -3 -23 -1 -23 6 0 6 7 11 15 11 25 0 17 17 -14 28 -20 7 -32 7 -40 -1 -6
-6 -13 -8 -16 -5 -4 3 3 15 15 26 l21 19 -38 19 c-21 10 -49 17 -62 15 -16 -2
-21 1 -15 10 5 9 2 11 -9 6 -10 -3 -17 -3 -17 2 0 5 -11 16 -24 24 -21 14 -26
14 -36 2z"/>
<path d="M25528 12753 c6 -2 12 -11 12 -19 0 -8 -6 -14 -12 -14 -7 -1 1 -12
17 -25 24 -20 26 -25 12 -25 -14 0 -17 -5 -12 -20 4 -12 2 -20 -5 -20 -6 0 -8
5 -5 10 3 6 2 10 -4 10 -5 0 -11 -6 -14 -12 -2 -7 -2 0 1 16 3 19 1 26 -7 22
-6 -4 -11 -22 -11 -41 0 -20 -6 -35 -15 -39 -8 -3 -15 -13 -15 -23 0 -11 -3
-14 -8 -7 -8 12 -65 36 -78 33 -5 -1 -17 1 -27 6 -10 4 -21 5 -24 1 -4 -3 1
-6 10 -6 12 0 16 -10 15 -42 0 -23 4 -44 10 -46 5 -1 23 -14 39 -28 15 -13 31
-24 36 -24 4 0 7 -6 7 -14 0 -8 11 -13 26 -13 14 0 31 -6 37 -12 9 -9 8 -11
-7 -5 -26 10 -16 -18 11 -31 12 -6 28 -17 37 -24 13 -11 15 -9 11 18 -4 32 14
39 27 11 4 -10 7 -5 7 13 1 16 -3 26 -9 22 -5 -3 -10 3 -10 14 0 12 -6 21 -14
21 -7 0 -21 11 -29 24 -24 35 -4 49 42 28 20 -9 37 -20 39 -24 4 -9 42 24 42
37 0 5 23 44 50 84 57 85 63 111 25 106 -14 -1 -25 2 -25 6 0 5 -6 9 -14 9 -8
0 -16 3 -19 8 -2 4 -1 0 1 -8 3 -8 5 -25 5 -37 -1 -13 3 -20 8 -17 5 3 9 1 9
-4 0 -5 -11 -9 -25 -9 -15 0 -25 5 -25 13 0 8 -7 14 -15 14 -7 0 -18 6 -22 13
-12 19 -69 57 -85 56 -10 0 -10 -2 0 -6z"/>
<path d="M27915 12720 c-3 -5 0 -10 7 -10 19 0 96 -51 103 -68 3 -9 0 -12 -9
-9 -13 5 -45 -19 -35 -26 2 -2 28 -21 58 -42 30 -22 66 -50 79 -62 17 -16 37
-23 64 -23 21 0 47 -5 58 -12 15 -9 24 -9 42 0 22 12 120 9 403 -14 79 -7 80
-7 63 13 -24 27 -23 30 13 38 87 19 -40 75 -301 132 -63 13 -132 29 -152 35
-20 6 -54 8 -75 5 -30 -5 -51 0 -98 23 -50 25 -71 30 -137 30 -42 0 -80 -4
-83 -10z"/>
<path d="M24634 12531 c-9 -22 -5 -63 9 -80 10 -12 9 -13 -2 -7 -10 7 -12 3
-6 -14 6 -19 4 -21 -14 -15 -12 3 -21 2 -21 -4 0 -5 -3 -17 -7 -27 -4 -12 -3
-15 5 -10 7 4 12 1 12 -9 0 -9 -4 -13 -10 -10 -5 3 -10 1 -10 -4 0 -6 6 -11
13 -11 7 -1 5 -6 -5 -14 -19 -14 -25 -32 -8 -21 6 3 10 -1 10 -10 0 -9 -4 -13
-10 -10 -5 3 -10 0 -10 -9 0 -8 6 -17 13 -19 7 -3 5 -6 -5 -6 -20 -1 -25 -45
-8 -71 8 -12 10 -10 10 9 0 20 2 21 15 11 12 -10 16 -8 24 13 5 13 8 36 7 50
-4 38 8 54 28 37 9 -7 18 -11 20 -9 10 13 24 72 20 84 -4 8 -1 15 5 15 6 0 11
7 11 15 0 8 6 15 13 15 8 0 7 3 -3 10 -8 5 -12 12 -8 15 8 8 -27 45 -42 45 -6
0 -8 10 -4 24 4 18 1 25 -15 29 -12 3 -22 -1 -27 -12z"/>
<path d="M25230 12469 c0 -5 5 -7 10 -4 6 3 10 -1 10 -9 0 -9 5 -16 10 -16 6
0 10 -5 10 -11 0 -6 9 -21 19 -33 53 -58 81 -95 81 -106 0 -6 -16 4 -35 24
-39 40 -49 45 -41 18 4 -13 1 -19 -9 -19 -18 0 -19 11 -4 40 12 21 11 21 -13
5 -23 -15 -25 -15 -37 5 -11 17 -11 22 3 33 15 10 15 12 1 18 -9 3 -14 2 -11
-3 3 -5 -1 -12 -10 -15 -8 -3 -13 -2 -10 2 6 9 -16 38 -29 37 -16 -1 -51 -24
-37 -25 6 0 12 -5 12 -11 0 -5 -4 -7 -10 -4 -17 10 -11 -21 8 -46 10 -13 27
-41 37 -63 11 -21 27 -41 35 -44 8 -3 30 -21 49 -39 39 -37 51 -31 51 25 0 27
4 32 23 31 21 0 21 -1 2 -9 -18 -8 -17 -9 7 -9 14 -1 28 -6 30 -12 4 -13 58
-1 58 13 0 5 -4 6 -10 3 -5 -3 -10 -2 -10 4 0 5 5 11 12 13 6 2 12 14 13 26 1
11 -2 19 -6 16 -4 -2 -10 0 -13 5 -4 5 7 12 24 16 26 6 28 9 17 26 -7 11 -18
17 -24 14 -7 -2 -13 2 -13 9 0 7 -18 31 -39 53 -34 34 -40 37 -44 21 -3 -10
-10 -18 -17 -18 -6 0 -9 3 -6 8 2 4 -2 16 -11 27 -14 20 -14 20 -29 1 -12 -17
-14 -18 -14 -3 0 10 -8 17 -20 17 -11 0 -20 -5 -20 -11z"/>
<path d="M24413 12326 c-23 -11 -60 -112 -55 -151 1 -15 0 -17 -7 -6 -5 7 -14
10 -21 6 -9 -5 -10 -1 -5 15 5 16 4 20 -5 15 -7 -4 -9 -16 -5 -29 12 -40 15
-105 5 -111 -5 -3 -10 -11 -10 -16 0 -6 5 -7 12 -3 8 5 9 2 5 -10 -4 -10 -7
-20 -7 -22 0 -3 -4 -2 -10 1 -5 3 -10 0 -10 -7 0 -7 -7 -21 -15 -32 -13 -17
-15 -17 -31 -2 -12 13 -14 20 -5 29 6 6 11 22 11 34 0 16 10 30 30 41 36 20
38 32 7 32 -23 0 -67 33 -67 50 0 5 5 12 11 16 6 3 8 15 6 25 -3 11 6 40 20
64 20 37 22 45 9 45 -9 0 -16 -7 -16 -15 0 -9 -11 -20 -24 -25 -27 -10 -44
-30 -25 -30 7 0 5 -6 -6 -13 -13 -11 -16 -21 -11 -42 6 -25 5 -27 -16 -22 -28
7 -39 1 -57 -35 -8 -15 -18 -25 -23 -22 -5 4 -19 -4 -30 -15 -16 -18 -23 -20
-34 -10 -12 10 -16 8 -21 -9 -5 -20 -25 -33 -21 -14 3 16 -15 42 -31 42 -12 0
-13 -2 -3 -9 10 -6 9 -10 -7 -14 -12 -3 -19 -1 -15 4 8 13 -10 11 -25 -3 -11
-10 -14 -10 -18 0 -3 6 -14 12 -25 12 -18 0 -18 -1 -4 -16 9 -8 16 -23 16 -32
-1 -14 -4 -13 -19 6 -20 23 -41 29 -41 12 0 -5 -15 -10 -33 -10 -54 0 -104
-47 -330 -313 -59 -70 -112 -127 -118 -127 -5 0 -9 -6 -9 -14 0 -7 -10 -24
-22 -38 -13 -13 -49 -55 -82 -94 -32 -38 -86 -98 -120 -134 -75 -78 -83 -90
-56 -83 11 3 36 2 57 -2 l36 -7 -41 -21 c-23 -11 -42 -24 -42 -28 0 -4 39 -10
88 -14 48 -3 104 -13 124 -20 20 -8 65 -19 100 -25 55 -8 71 -7 128 12 36 12
73 27 83 34 13 8 28 9 50 3 34 -9 67 -4 67 12 0 5 11 9 24 9 25 0 29 6 41 68
8 39 20 40 76 7 52 -29 66 -31 91 -8 17 16 23 16 88 -1 l68 -18 69 45 c37 24
79 56 92 71 l25 26 -53 -4 c-97 -7 -176 29 -164 75 4 12 -3 29 -16 43 -12 12
-19 25 -16 28 4 3 -6 15 -20 27 -15 11 -25 24 -23 29 7 18 133 181 141 182 4
0 7 -14 7 -32 0 -19 4 -28 9 -22 15 16 50 121 43 129 -4 5 -2 5 5 2 7 -5 13 9
18 43 4 27 11 50 16 50 5 0 9 7 9 16 0 14 2 14 17 -1 9 -9 12 -20 7 -23 -5 -4
-11 -18 -13 -32 -1 -14 -7 -33 -12 -42 -7 -12 -6 -18 1 -18 8 0 9 -11 4 -32
-4 -18 -8 -49 -9 -68 -1 -19 -4 -39 -5 -45 -1 -5 -2 -18 -1 -29 1 -15 4 -16
16 -6 8 7 12 16 9 21 -3 5 -1 9 3 9 9 0 33 48 54 108 6 18 15 32 19 32 4 0 17
19 29 43 l21 42 -2 -77 c-1 -43 -4 -78 -8 -78 -3 0 -6 -8 -7 -17 0 -10 -3 -40
-6 -66 -4 -34 -2 -47 6 -44 14 4 25 52 22 96 -1 20 2 30 9 28 7 -3 11 20 10
70 -1 67 2 97 20 173 7 29 26 131 26 139 0 3 5 -1 11 -9 8 -11 9 -5 6 27 -4
33 -2 40 9 36 9 -3 14 1 14 12 0 12 -5 15 -16 11 -11 -4 -15 -2 -11 8 3 8 1
17 -6 20 -7 2 -1 5 13 6 25 1 25 1 3 10 -19 8 -21 13 -13 39 9 34 -2 43 -37
27z m-286 -353 c2 -6 -7 -8 -24 -5 -25 5 -26 3 -15 -11 11 -13 10 -16 -8 -22
-11 -3 -18 -10 -15 -14 2 -5 -4 -16 -15 -26 -11 -10 -20 -26 -20 -37 0 -10 -6
-18 -12 -18 -10 0 -10 -2 0 -9 11 -7 11 -9 -2 -14 -9 -4 -13 -13 -10 -22 3 -8
1 -15 -5 -15 -7 0 -11 -6 -10 -12 1 -7 1 -22 0 -33 -1 -17 -3 -18 -12 -5 -8
11 -9 7 -5 -18 3 -19 2 -31 -3 -27 -12 7 -25 -31 -16 -45 3 -5 1 -10 -5 -10
-7 0 -9 -7 -6 -16 4 -12 2 -15 -9 -10 -11 4 -15 -1 -15 -19 0 -14 5 -24 11
-22 6 1 16 -5 22 -15 14 -21 -21 -168 -40 -168 -16 0 -111 49 -118 60 -3 4 6
24 20 44 13 20 22 36 18 36 -3 0 0 7 7 15 10 12 10 19 2 27 -9 9 -12 7 -12
-10 0 -25 -8 -27 -45 -10 -28 13 -33 39 -10 62 8 8 15 17 15 20 0 3 18 25 41
48 22 24 48 55 57 71 9 15 19 27 23 27 8 0 -2 -53 -11 -60 -14 -10 -38 -67
-45 -105 -6 -36 -5 -38 8 -23 8 10 17 15 20 11 4 -3 7 8 7 25 0 18 5 32 10 32
6 0 10 10 10 23 0 18 2 19 10 7 7 -11 10 -7 10 18 0 32 97 249 127 283 15 18
63 13 70 -8z m-227 -57 c0 -8 6 -17 13 -19 6 -3 2 -6 -10 -6 -12 -1 -23 5 -26
12 -2 6 -7 9 -11 6 -3 -3 4 -16 15 -28 19 -20 19 -22 3 -19 -10 2 -19 -2 -19
-9 0 -16 -15 -29 -15 -13 0 7 -3 10 -6 7 -4 -4 -1 -13 6 -22 7 -9 10 -18 6
-22 -3 -3 -6 -1 -6 6 0 9 -4 8 -15 -3 -8 -8 -15 -21 -15 -28 0 -8 -9 -24 -20
-36 -11 -12 -20 -25 -20 -31 0 -5 -7 -11 -15 -15 -8 -3 -15 -17 -15 -31 0 -16
-6 -25 -16 -25 -11 0 -14 -5 -10 -16 4 -11 -1 -18 -14 -21 -11 -3 -17 -9 -14
-14 3 -5 -1 -9 -10 -9 -12 0 -13 6 -4 38 6 20 13 39 17 42 4 3 19 30 34 60 35
72 62 112 70 103 4 -3 7 4 7 16 0 15 7 25 20 28 12 3 19 11 17 17 -7 19 13 46
33 46 11 0 20 -6 20 -14z"/>
<path d="M24230 11518 c0 -13 -3 -39 -6 -59 -6 -34 -4 -37 26 -48 19 -6 38 -7
48 -2 10 6 31 4 55 -5 59 -21 100 -18 133 11 16 14 32 25 35 25 4 0 9 7 13 15
4 12 -9 14 -89 8 -69 -4 -98 -3 -110 7 -8 7 -12 16 -9 21 3 5 -6 9 -19 9 -13
0 -36 9 -51 21 l-26 20 0 -23z"/>
<path d="M34540 10958 c-11 -18 -22 -37 -24 -43 -3 -5 -12 -1 -20 10 -8 11
-23 28 -33 38 -23 23 -28 13 -53 -107 -39 -192 -117 -403 -267 -726 -22 -47
-46 -102 -54 -124 -14 -38 -38 -68 -78 -96 -16 -11 -25 -33 -33 -80 -14 -88
-13 -102 13 -120 13 -8 28 -21 33 -28 6 -7 32 -35 58 -63 56 -59 114 -172 128
-246 5 -29 10 -94 12 -145 2 -85 0 -96 -24 -134 -14 -22 -39 -49 -54 -59 -16
-10 -38 -29 -50 -43 -16 -19 -32 -26 -65 -28 -24 -1 -57 -5 -74 -8 -16 -3 -24
-3 -17 0 9 4 5 11 -12 25 -35 27 -54 24 -27 -4 19 -21 20 -26 7 -36 -16 -14
-80 -6 -71 9 3 4 -2 11 -11 14 -13 5 -14 9 -4 21 7 8 9 15 4 15 -5 0 2 9 16
20 l25 20 -34 0 c-28 0 -31 -2 -22 -14 10 -11 7 -17 -11 -30 -33 -24 -56 -21
-34 3 20 22 7 36 -23 26 -11 -3 -22 -1 -26 4 -3 6 6 13 20 17 13 3 22 10 19
15 -3 5 -16 1 -30 -8 -19 -12 -28 -13 -37 -4 -6 6 -18 11 -27 10 -10 0 -9 -3
5 -8 17 -7 13 -10 -25 -21 -25 -6 -58 -18 -75 -25 -16 -7 -50 -16 -74 -19 -54
-8 -84 -24 -78 -41 3 -7 -5 -17 -19 -24 -16 -7 -24 -7 -24 0 0 5 -17 -2 -37
-17 -57 -42 -113 -96 -113 -110 0 -19 20 -28 33 -15 13 13 47 15 47 3 0 -17
-95 -58 -127 -56 -18 1 -33 -2 -33 -7 0 -5 -16 -9 -36 -9 -30 0 -35 3 -29 20
6 18 2 18 -57 -7 -127 -51 -159 -74 -192 -140 -19 -38 -12 -63 18 -63 33 0
116 25 178 54 32 15 83 29 120 33 94 8 355 -14 440 -38 40 -12 87 -21 103 -21
24 0 26 -1 11 -7 -18 -7 -17 -9 10 -18 16 -6 38 -15 49 -19 18 -7 18 -6 6 9
-17 21 -2 22 25 2 14 -11 15 -14 4 -15 -23 0 18 -25 74 -43 57 -20 56 -19 56
-9 0 9 -46 30 -87 38 -22 4 -30 11 -26 21 3 9 -2 16 -13 19 -20 5 -49 54 -33
54 5 0 9 -4 9 -10 0 -5 12 -13 28 -16 15 -4 35 -14 45 -22 12 -11 21 -12 28
-5 8 8 5 13 -10 18 -12 3 -21 10 -21 15 0 16 21 22 34 10 8 -6 25 -8 39 -5 15
4 28 2 32 -6 6 -9 2 -11 -13 -7 -12 3 -21 3 -20 -1 2 -20 -4 -31 -17 -31 -8 0
-15 -4 -15 -9 0 -6 85 -8 133 -2 4 1 -5 13 -20 27 l-28 26 29 -17 c21 -13 39
-15 72 -10 29 4 44 2 44 -4 0 -14 37 -14 45 -1 10 17 48 12 42 -5 -10 -26 10
-26 27 0 15 23 15 25 -1 26 -10 0 -13 2 -8 5 6 2 34 -2 63 -9 28 -8 52 -10 52
-6 0 5 7 9 15 9 18 0 20 -20 3 -21 -60 -4 -100 -18 -92 -31 5 -7 2 -8 -6 -3
-8 5 -18 1 -26 -10 -12 -16 -14 -16 -29 -1 -19 18 -31 20 -40 6 -9 -15 -42
-12 -68 5 -15 9 -27 11 -37 5 -13 -8 -13 -10 2 -10 9 0 19 -3 21 -7 9 -14 -90
-8 -107 6 -13 11 -17 11 -22 -3 -3 -9 -1 -23 6 -31 16 -19 31 -19 24 0 -9 23
13 18 31 -7 10 -15 18 -19 23 -12 10 15 51 24 58 13 3 -5 16 -6 29 -3 16 4 30
-1 44 -15 29 -29 26 -34 -8 -17 -16 9 -32 12 -35 8 -4 -3 -24 -5 -44 -4 -25 2
-33 0 -23 -6 11 -8 11 -10 0 -15 -10 -4 -9 -6 3 -6 9 -1 29 4 43 9 22 8 26 8
22 -4 -4 -9 5 -16 31 -20 53 -9 499 -26 547 -20 22 2 173 7 335 10 290 5 454
18 610 51 143 29 375 66 425 66 38 1 69 -8 130 -37 l79 -37 244 1 c135 0 252
5 261 10 9 5 12 10 7 10 -5 0 -3 6 3 13 9 11 2 18 -32 35 -23 11 -58 24 -77
28 -19 3 -39 10 -45 14 -5 4 -42 11 -81 15 -87 8 -120 25 -51 25 60 0 186 -31
292 -72 44 -17 100 -35 125 -39 25 -4 62 -10 84 -15 l38 -7 -17 26 c-17 26
-17 27 3 27 29 0 38 19 16 34 -10 8 -15 20 -11 29 4 11 -1 21 -16 28 -12 6
-34 23 -48 38 -14 14 -45 37 -69 51 -24 14 -58 35 -77 48 -45 30 -117 46 -144
32 -11 -7 -45 -9 -82 -5 -48 4 -57 3 -38 -5 34 -15 20 -23 -15 -9 -16 6 -85
15 -154 20 -132 9 -207 23 -253 46 -30 15 -27 38 4 30 11 -3 19 -2 18 1 0 9
-115 65 -137 67 -22 2 -73 26 -90 42 -19 18 -10 16 61 -12 34 -13 54 -19 44
-11 -9 7 -65 32 -125 55 -59 23 -117 46 -130 51 -13 6 -25 22 -28 40 -7 31
-38 59 -111 100 -44 24 -55 40 -28 40 9 0 12 6 9 15 -7 17 4 19 40 5 31 -11
36 4 6 20 -24 13 -26 30 -3 30 15 0 15 2 -1 19 -13 14 -14 20 -5 23 8 3 9 9 4
19 -5 8 -8 26 -7 40 4 31 -38 104 -119 211 -33 43 -59 81 -59 86 0 5 -9 17
-20 27 -11 10 -20 26 -20 35 0 32 -97 90 -151 90 -19 0 -50 4 -69 9 -28 8
-118 20 -152 21 -5 0 -8 5 -8 11 0 5 3 8 8 6 4 -3 57 -10 117 -16 61 -7 125
-16 142 -22 58 -18 73 -5 23 19 -34 17 -83 26 -212 39 -99 10 -163 20 -156 25
7 4 83 5 169 2 160 -7 186 -2 151 28 -14 13 -34 14 -114 8 -53 -4 -108 -5
-123 -2 l-27 5 32 13 c21 9 73 14 146 14 93 0 114 3 114 14 0 25 -77 27 -260
8 -163 -18 -226 -16 -169 6 20 8 151 30 339 58 25 3 52 10 60 14 13 7 12 10
-4 16 -21 8 -224 -13 -241 -25 -5 -4 -26 -8 -45 -10 -36 -2 -89 -15 -125 -31
-24 -10 -95 -21 -95 -14 0 24 58 49 240 100 113 32 216 65 228 73 l24 14 -28
15 c-25 13 -35 12 -128 -19 -56 -18 -108 -36 -116 -40 -8 -4 -36 -13 -63 -20
-26 -6 -50 -16 -53 -20 -3 -5 -16 -9 -28 -9 -13 0 -39 -7 -59 -15 -33 -13 -35
-13 -40 5 -4 15 3 22 32 31 43 14 190 86 211 104 17 13 125 45 156 45 24 0 87
44 77 53 -3 4 -17 7 -29 7 -22 0 -40 -6 -111 -36 -17 -8 -38 -14 -48 -14 -9 0
-29 -7 -45 -15 -39 -20 -164 -65 -181 -65 -14 0 75 88 138 137 31 24 61 29
128 20 16 -1 21 5 23 30 2 17 -4 46 -13 62 -13 26 -21 31 -52 31 l-36 0 6 44
c5 32 2 47 -8 56 -8 7 -15 19 -15 26 0 18 -24 18 -60 -1 -27 -14 -30 -14 -30
1 0 11 -6 15 -20 11 -26 -7 -34 7 -15 23 9 7 13 21 10 31 -4 10 -1 28 5 40 8
14 9 24 2 31 -21 21 -61 -3 -117 -72 -34 -42 -65 -70 -76 -70 -29 0 -23 18 16
53 34 30 35 33 35 100 0 60 -4 75 -26 104 -31 41 -39 41 -59 3 -22 -42 -32
-37 -40 19 -4 33 -16 58 -36 80 l-29 32 -20 -33z"/>
<path d="M33680 9290 c-20 -38 -40 -46 -40 -15 0 19 -33 36 -50 25 -14 -9 -42
-198 -31 -204 8 -4 187 19 300 39 111 19 135 30 126 53 -4 9 -10 25 -12 35 -3
9 -12 17 -19 17 -8 0 -18 9 -22 20 l-8 21 -21 -21 c-12 -11 -37 -41 -55 -67
l-32 -48 -8 44 c-4 25 -12 49 -18 55 -5 5 -10 16 -10 24 0 18 -46 62 -65 62
-8 0 -24 -18 -35 -40z"/>
<path d="M37423 4121 c-13 -3 -19 -10 -15 -16 11 -15 61 -39 68 -33 3 4 14 -2
25 -13 10 -10 28 -19 40 -19 11 0 18 -4 14 -10 -3 -5 -12 -7 -20 -3 -8 3 -15
0 -15 -7 0 -8 -9 -10 -25 -6 -14 4 -25 2 -25 -4 0 -5 7 -10 15 -10 8 0 15 -9
15 -20 0 -11 4 -20 8 -20 8 0 32 -43 32 -56 0 -2 -12 -1 -27 2 -22 6 -25 4
-20 -10 4 -10 7 -20 7 -22 0 -2 12 -2 28 2 26 6 26 6 7 -9 l-20 -16 20 -1 c13
0 16 -3 8 -8 -10 -6 -8 -12 5 -23 9 -9 24 -26 32 -39 8 -12 23 -33 33 -45 9
-13 17 -28 17 -34 0 -6 4 -11 10 -11 5 0 9 -18 7 -39 -2 -40 -11 -43 -20 -6
-4 18 -5 17 -6 -3 0 -13 4 -32 9 -43 8 -15 7 -19 -5 -19 -8 0 -15 -7 -15 -16
0 -8 -4 -12 -10 -9 -6 3 -10 -4 -10 -17 -1 -66 -127 -370 -169 -408 -3 -3 -12
-13 -20 -22 -12 -16 -11 -18 3 -18 9 0 16 7 16 15 0 8 5 15 11 15 7 0 9 -11 6
-30 -5 -25 -3 -30 13 -30 23 0 35 -16 18 -24 -7 -3 -1 -4 13 -1 26 5 83 -17
94 -36 4 -5 13 -9 21 -9 8 0 12 5 9 10 -4 6 10 10 35 10 23 0 39 4 36 9 -4 5
3 7 15 4 16 -5 18 -8 7 -15 -8 -5 38 -8 114 -7 69 1 132 -2 138 -6 7 -4 16 -1
21 6 7 11 11 11 17 1 5 -7 16 -10 24 -7 9 4 18 3 21 -2 3 -5 24 -7 47 -5 31 3
44 9 47 23 3 11 9 19 14 19 5 0 6 -6 3 -14 -3 -8 -1 -17 5 -21 6 -3 11 -1 11
5 0 8 6 8 20 0 11 -6 25 -8 31 -4 6 4 15 0 20 -7 5 -8 9 -9 9 -4 0 6 21 9 47
8 27 -1 63 -2 81 -2 21 -1 32 -6 32 -16 0 -8 6 -12 13 -10 16 6 140 -19 132
-27 -4 -3 4 -6 17 -6 13 -1 46 -6 73 -11 121 -25 118 -24 113 -10 -2 8 -19 24
-36 36 -20 13 -27 23 -20 26 10 3 10 11 -2 33 -14 26 -16 50 -9 159 1 29 -20
205 -26 216 -3 4 -6 42 -7 84 0 41 -4 78 -9 81 -5 3 -9 16 -9 29 0 13 -4 27
-10 30 -5 3 -10 14 -10 23 0 20 -43 108 -64 131 -8 9 -18 28 -21 44 -4 15 -16
32 -26 38 -24 12 -25 29 -2 29 35 0 175 -54 324 -126 92 -44 166 -74 179 -72
85 12 -523 279 -764 335 -112 25 -115 26 -81 9 l30 -15 -35 6 c-19 4 -36 10
-38 15 -2 4 -16 8 -30 8 -31 0 -68 19 -42 21 8 0 4 4 -10 8 -16 5 -31 3 -40
-5 -12 -10 -20 -10 -40 1 -37 21 -49 18 -20 -5 14 -11 20 -20 13 -20 -6 0 -15
5 -18 10 -3 6 -15 10 -25 10 -12 0 -17 5 -14 13 3 9 -14 17 -59 26 -36 7 -73
11 -83 10 -11 -1 -39 1 -64 6 -25 5 -77 9 -117 9 -56 1 -69 -2 -61 -11 8 -10
6 -13 -6 -13 -9 0 -16 5 -16 10 0 6 -6 10 -14 10 -8 0 -16 4 -18 8 -1 5 -13 6
-25 3z"/>
<path d="M36905 3039 c-4 -6 -13 -8 -21 -5 -7 3 -16 1 -20 -5 -3 -5 -14 -7
-24 -4 -25 8 -95 -11 -115 -31 -15 -16 -21 -65 -7 -63 19 3 25 -2 12 -11 -13
-9 -13 -11 0 -20 11 -8 8 -9 -12 -4 -16 3 -40 0 -59 -10 -23 -11 -36 -13 -45
-5 -9 7 -27 4 -64 -12 -39 -17 -56 -20 -73 -12 -25 12 -101 -12 -91 -28 3 -5
-2 -9 -10 -9 -9 0 -16 4 -16 10 0 5 -19 1 -42 -9 -41 -17 -84 -73 -71 -94 8
-14 96 -1 140 20 32 15 65 18 211 18 94 0 172 4 172 8 0 5 7 1 16 -7 8 -9 21
-16 27 -16 7 0 6 4 -3 10 -28 17 -5 18 50 1 35 -11 49 -20 40 -23 -8 -4 1 -4
20 -1 19 4 36 10 38 14 9 23 41 53 48 46 5 -4 2 -12 -6 -18 -12 -7 -10 -8 9
-7 17 2 26 -4 33 -22 7 -20 7 -23 -3 -12 -18 17 -34 15 -19 -3 10 -13 7 -17
-21 -30 l-34 -14 33 -1 c20 0 31 -4 27 -10 -3 -5 -1 -10 4 -10 6 0 11 4 11 10
0 5 7 7 16 3 13 -5 15 3 13 52 -2 39 1 60 9 63 7 2 12 -1 12 -7 0 -6 6 -11 14
-11 8 0 17 -6 20 -12 3 -7 4 -1 1 13 -4 23 -2 27 19 25 14 0 22 -6 19 -13 -3
-7 -1 -18 4 -25 4 -7 8 -29 9 -49 0 -20 8 -44 17 -54 19 -19 22 -13 7 16 -7
12 -7 19 -1 19 5 0 13 -9 16 -20 3 -11 11 -20 16 -20 5 0 8 -5 7 -11 -2 -6 6
-16 17 -22 10 -7 25 -18 33 -24 7 -7 18 -13 23 -13 5 0 9 -7 9 -16 0 -18 58
-74 78 -74 7 0 23 -6 35 -14 13 -8 110 -22 243 -36 248 -25 414 -24 649 3 77
9 190 21 250 27 61 6 169 18 240 25 72 8 152 21 179 29 65 21 105 20 160 -4
41 -17 62 -18 198 -14 84 3 184 12 221 20 38 8 70 14 73 14 2 0 4 9 4 20 0 14
-9 21 -37 25 -21 3 -47 8 -58 11 -28 8 -155 25 -188 26 -20 1 -25 3 -15 10 8
5 -3 6 -27 2 -47 -7 -136 13 -115 26 9 6 1 12 -26 19 -45 13 -80 14 -50 2 19
-7 19 -8 -2 -13 -12 -4 -20 -2 -16 3 3 5 -3 9 -13 9 -15 0 -16 2 -3 10 13 8
12 10 -3 10 -10 0 -36 9 -59 21 -22 11 -51 19 -64 16 -25 -4 -33 8 -11 16 6 3
2 6 -11 6 -13 1 -21 -3 -17 -8 3 -6 -12 -10 -35 -9 -22 0 -43 4 -45 8 -8 12
16 60 27 54 4 -3 6 -10 3 -15 -7 -10 18 -13 28 -3 7 7 -46 54 -61 54 -6 0 -13
6 -15 13 -3 6 -6 2 -6 -11 -1 -12 4 -21 10 -20 20 5 19 -34 -1 -39 -11 -3 -16
-11 -13 -19 6 -17 -9 -18 -25 -2 -9 9 -12 9 -12 -1 0 -11 -3 -11 -15 -1 -8 6
-20 8 -27 4 -10 -6 -9 -3 1 9 11 15 11 17 -2 17 -8 0 -18 -6 -20 -12 -4 -10
-6 -10 -6 0 -1 6 -10 12 -20 12 -11 0 -21 4 -23 8 -1 5 -16 12 -33 16 -22 5
-26 4 -15 -4 12 -8 11 -10 -9 -10 -16 0 -21 4 -18 14 4 9 -3 16 -19 19 -20 3
-24 1 -19 -11 5 -13 3 -13 -13 1 -10 9 -31 17 -45 17 -15 0 -27 5 -27 10 0 16
-19 11 -37 -10 -17 -19 -17 -19 -30 0 -9 12 -25 20 -41 19 l-27 -1 30 -9 c23
-6 17 -7 -28 -5 -33 1 -52 -1 -45 -5 7 -5 33 -9 57 -9 56 0 50 -6 -12 -12 -34
-4 -52 -1 -62 9 -11 11 -19 11 -35 3 -11 -6 -18 -15 -15 -21 4 -5 2 -9 -3 -9
-15 0 -22 13 -13 24 17 23 20 45 5 39 -7 -3 -14 -11 -14 -19 0 -8 -4 -14 -10
-14 -5 0 -10 6 -10 13 0 8 -3 8 -9 -2 -8 -12 -12 -12 -26 3 -16 15 -19 15 -34
2 -15 -14 -19 -14 -34 4 -9 11 -21 20 -27 20 -16 0 -12 -20 5 -26 9 -4 15 -18
14 -38 0 -29 -1 -29 -11 -9 -6 12 -19 23 -29 26 -13 3 -17 1 -12 -6 8 -13 13
-37 8 -37 -2 0 -15 11 -29 23 -19 18 -23 26 -14 35 7 7 10 12 8 13 -57 8 -70
6 -70 -12 0 -10 -4 -21 -10 -24 -5 -3 -10 1 -10 10 0 9 -4 13 -10 10 -13 -8
-13 -42 0 -48 6 -3 5 -4 -2 -3 -8 2 -13 19 -13 44 0 23 -3 42 -7 42 -5 0 -8
-9 -8 -20 0 -11 -4 -20 -10 -20 -5 0 -10 9 -10 20 0 11 -4 20 -10 20 -5 0 -10
-5 -10 -11 0 -14 -30 -38 -48 -39 -7 0 -22 9 -34 20 -21 19 -42 25 -82 20 -11
-1 -15 3 -12 9 4 6 0 11 -8 11 -9 0 -16 -4 -16 -10 0 -5 -7 -10 -15 -10 -8 0
-15 -5 -15 -10 0 -7 -6 -7 -17 -1 -10 5 -26 12 -35 15 -10 3 -18 15 -18 26 0
11 -3 19 -7 19 -5 -1 -12 0 -18 1 -5 1 -17 3 -25 4 -8 0 -14 9 -12 19 2 9 -1
17 -6 17 -12 0 -24 -44 -17 -62 4 -10 -5 -12 -40 -10 -45 4 -54 22 -10 22 13
0 27 5 30 11 10 16 -4 24 -17 11 -17 -17 -41 -15 -35 3 4 8 2 17 -3 20 -6 4
-10 -6 -10 -22 0 -22 -2 -25 -10 -13 -9 13 -10 13 -10 0 0 -8 4 -22 10 -30 6
-9 5 -17 -3 -22 -9 -6 -7 -11 6 -19 9 -5 17 -15 17 -20 0 -6 -7 -3 -16 5 -18
19 -26 20 -41 5 -8 -8 -13 -8 -17 0 -4 6 4 15 18 21 14 5 26 14 26 20 0 13 -6
13 -30 -2 -17 -11 -22 -10 -29 1 -6 9 -18 11 -34 7 -14 -3 -29 -2 -32 4 -3 5
1 10 9 10 18 0 21 16 6 25 -6 4 -16 -7 -23 -24 -14 -32 -27 -32 -27 1 0 10 -6
18 -14 18 -9 0 -12 -7 -9 -20 7 -26 -18 -27 -40 -2 -11 12 -28 18 -49 16 -18
-2 -25 -1 -15 2 9 3 17 10 17 15 0 12 -67 12 -75 -1 -3 -5 2 -10 13 -10 15 0
18 -5 14 -25 -4 -25 6 -33 24 -15 6 6 15 6 24 0 12 -8 11 -10 -5 -10 -12 0
-26 -5 -33 -12 -9 -9 -15 -9 -24 0 -7 7 -21 12 -31 12 -16 0 -17 3 -7 15 9 11
9 20 -3 44 -14 29 -14 29 14 27 15 -1 25 2 22 7 -3 5 -22 7 -43 4 -29 -4 -39
-1 -49 15 -7 11 -10 22 -7 25 3 3 8 -2 12 -11 3 -9 10 -14 15 -11 4 3 4 16 -1
29 -5 13 -6 27 -3 30 4 3 1 6 -5 6 -6 0 -14 -5 -17 -11z"/>
</g>
</svg>
