<?xml version="1.0" encoding="UTF-8" standalone="no"?>
<svg id="svg13" xmlns:rdf="http://www.w3.org/1999/02/22-rdf-syntax-ns#" xmlns="http://www.w3.org/2000/svg" width="2004.1" version="1.1" xmlns:cc="http://creativecommons.org/ns#" height="2834.6" viewBox="0 0 2004.0945 2834.6458" xmlns:dc="http://purl.org/dc/elements/1.1/">
 <metadata id="metadata19">
  <rdf:RDF>
   <cc:Work rdf:about="">
    <dc:format>image/svg+xml</dc:format>
    <dc:type rdf:resource="http://purl.org/dc/dcmitype/StillImage"/>
   </cc:Work>
  </rdf:RDF>
 </metadata>
 <g id="Layer1000" fill-rule="evenodd">
  <path id="path2" fill="#3b8fcc" d="m913.39 605.89c123.75-8.98 204.38-33.347 280-71.384 239.58-120.52 273.56-274.3 63.047-327.6 111.49 62.768 24.926 240.92-188.39 345.48-51.179 25.086-77.807 32.912-154.65 53.504z"/>
  <path id="path4" fill="#3b8fcc" d="m1140.8 198.2c-498.57 67.61-637.17 371.15-331.81 407.69-143.21-64.73-50.41-215.33 166.32-349.64 52.669-32.64 91.09-37.522 165.54-58.042z"/>
  <path id="path6" d="m1077.7 454.56-113.74-103.01c-7.6577-7.0266-16.634 3.1997-12.124 7.1504l116.22 103.63c6.3075 5.8482 14.273-4.9933 9.6271-7.7695z"/>
  <path id="path8" d="m999.9 395.46c-10.454 21.619-22.442 45.443-40.921 58.777-6.2236 3.0479-12.935 3.8708-20.82-0.5433-34.697-36.683-102.96-31.266-131.44 10.566 36.479 39.095 99.882 40.941 132.21 7.5339 5.4606-3.1118 11.684-3.747 18.807-1.474 14.912 9.655 27.16 24.495 37.21 46.997 1.474 2.8642 9.7109 0.0879 7.9213-3.1078-10.865-21.331-25.626-35.66-40.629-51.195 17.636-15.439 31.793-40.334 42.806-62.612z"/>
  <path id="path10" d="m1233 358.41c-26.676-39.687-96.111-48.798-132.68-11.189-24.008 12.359-50.532-32.836-59.664-50.496-2.4607-2.8202-9.1117 2.1292-5.9 5.4407 9.4952 19.921 26.496 40.569 44.744 53.292-17.58 16.354-34.881 38.28-49.565 61.681l8.1171 5.7483c10.905-21.954 26.584-43.541 47.432-59.272 6.3594-4.2542 9.7189-4.2942 15.687-0.1557 47.644 37.394 94.125 30.475 131.83-5.0493z"/>
 </g>
</svg>
